<svg xmlns="http://www.w3.org/2000/svg" 
    width="90pt"
    height="22.5pt">
<path id="shape0" transform="translate(0.281249980006078, -0.000336647387961381)" fill="none" stroke="#000000" stroke-width="0.75" stroke-linecap="square" stroke-linejoin="miter" stroke-miterlimit="2" d="M0 0.363618C3.72113 12.9933 6.03596 19.7444 6.9445 20.6169C8.3073 21.9257 12.6218 23.7831 15.6287 20.0203C17.6332 17.5117 20.2221 4.98984 21.5949 2.32053C22.9677 -0.348779 29.2555 -0.864461 31.0082 2.32053C32.7609 5.50552 35.1365 18.2733 37.0407 20.4843C38.9449 22.6953 45.5401 22.4762 46.7812 18.6566C48.0224 14.8369 49.6333 6.95351 52.0226 2.91715C54.4119 -1.1192 60.6487 -0.0707252 61.7674 4.24298C62.8861 8.55668 63.5048 14.2746 67.0707 19.49C70.6365 24.7053 76.3166 21.4203 77.2795 18.4956C78.2424 15.5709 79.4217 5.33385 82.5828 2.65199C84.6903 0.864076 87.0689 -0.0198075 89.7188 0.000336647"/>
</svg>
