<svg xmlns="http://www.w3.org/2000/svg"
    width="90pt"
    height="22.5pt">
<defs/>
<path id="shape0" transform="translate(0, 0.339843748470468)" fill="none" stroke="#000000" stroke-width="1" stroke-linecap="round" d="M0 0.128906L7.55859 21.8086L15.3047 21.7852L22.875 0.046875L30.3633 0L22.9219 0.128906L15.3047 21.832L7.85156 21.8203Z"/><path id="shape0" transform="matrix(1.00000000128198 0 0 1.00000000128198 30.3873775096099 0.333999986005932)" fill="none" stroke="#000000" stroke-width="0.75" stroke-linecap="square" stroke-linejoin="bevel" d="M0 0.128906L7.55859 21.8086L15.3047 21.7852L22.875 0.046875L30.3633 0L22.9219 0.128906L15.3047 21.832L7.85156 21.8203Z"/><path id="shape01" transform="matrix(1.00000000128198 0 0 1.00000000128198 60.3767226049007 0.333999986005931)" fill="none" stroke="#000000" stroke-width="0.75" stroke-linecap="square" stroke-linejoin="bevel" d="M0 0.128906L7.55859 21.8086L15.3047 21.7852L22.875 0.046875L30.3633 0L22.9219 0.128906L15.3047 21.832L7.85156 21.8203Z"/>
</svg>
